# xmcd CD database file generated by RipIT.
#
# Track frame offsets:
# 150
# 16159
# 30881
# 48704
# 69721
# 88338
# 98599
# 112469
# 135077
# 155361
# 174689
# 191494
# 209729
# 229186
# 245369
# 264117
# 287779
# 310729
#
# Disc length: 4433 seconds
#
#
# Revision: 2
# Processed by: cddbd v1.5.1PL2 Copyright (c) Steve Scherf et al.
# Submitted via: RipIT 3.4 www.suwald.com/ripit/ripit.html at Sun Apr 9 09:33:15 CEST 2006.
#
DISCID=f8114f12
DTITLE=Terence Trend D'Arby - Greatest Hits
DYEAR=2002
DGENRE=Soul
TTITLE0=Wishing Well
TTITLE1=If You Let Me Stay
TTITLE2=Dance Little Sister
TTITLE3=Sign Your Name
TTITLE4=Elevators And Hearts
TTITLE5=Heartbreak Hotel
TTITLE6=The Birth Of Maudie
TTITLE7=This Side Of Love
TTITLE8=To Know Someone Deeply
TTITLE9=Billy Don't Fall
TTITLE10=It's Allright Ma
TTITLE11=Do You Love Me Like You Say?
TTITLE12=Delicate (Feat. Des Ree)
TTITLE13=She Kissed Me
TTITLE14=Let Her Down Easy
TTITLE15=Right Thing Wrong Way
TTITLE16=Holding On To You
TTITLE17=A Change Is Gonna Come (Feat. Booker T and The MG's)
EXTD=
EXTT0=
EXTT1=
EXTT2=
EXTT3=
EXTT4=
EXTT5=
EXTT6=
EXTT7=
EXTT8=
EXTT9=
EXTT10=
EXTT11=
EXTT12=
EXTT13=
EXTT14=
EXTT15=
EXTT16=
EXTT17=
PLAYORDER=
